<svg width="310" height="310" viewBox="0 0 310 310" fill="none" xmlns="http://www.w3.org/2000/svg">
<path d="M147.5 4.33012C152.141 1.65063 157.859 1.65063 162.5 4.33013L281.734 73.1699C286.375 75.8494 289.234 80.8013 289.234 86.1603V223.84C289.234 229.199 286.375 234.151 281.734 236.83L162.5 305.67C157.859 308.349 152.141 308.349 147.5 305.67L28.2661 236.83C23.625 234.151 20.7661 229.199 20.7661 223.84V86.1602C20.7661 80.8013 23.6251 75.8494 28.2661 73.1699L147.5 4.33012Z" fill="white"/>
<path d="M161.25 6.49519L280.484 75.3349C284.351 77.5678 286.734 81.6944 286.734 86.1603V223.84C286.734 228.306 284.351 232.432 280.484 234.665L161.25 303.505C157.382 305.738 152.618 305.738 148.75 303.505L29.5161 234.665C25.6485 232.432 23.2661 228.306 23.2661 223.84V86.1602C23.2661 81.6944 25.6486 77.5678 29.5161 75.3349L148.75 6.49519C152.618 4.26228 157.382 4.26228 161.25 6.49519Z" stroke="#689F38" stroke-width="5"/>
</svg>
