<svg width="591" height="553" viewBox="0 0 591 553" fill="none" xmlns="http://www.w3.org/2000/svg">
<path d="M288.5 4.33012C293.141 1.65063 298.859 1.65063 303.5 4.33013L422.734 73.1699C427.375 75.8494 430.234 80.8013 430.234 86.1603V223.84C430.234 229.199 427.375 234.151 422.734 236.83L303.5 305.67C298.859 308.349 293.141 308.349 288.5 305.67L169.266 236.83C164.625 234.151 161.766 229.199 161.766 223.84V86.1602C161.766 80.8013 164.625 75.8494 169.266 73.1699L288.5 4.33012Z" fill="white"/>
<path d="M302.25 6.49519L421.484 75.3349C425.351 77.5678 427.734 81.6944 427.734 86.1603V223.84C427.734 228.306 425.351 232.432 421.484 234.665L302.25 303.505C298.382 305.738 293.618 305.738 289.75 303.505L170.516 234.665C166.649 232.432 164.266 228.306 164.266 223.84V86.1602C164.266 81.6944 166.649 77.5678 170.516 75.3349L289.75 6.49519C293.618 4.26228 298.382 4.26228 302.25 6.49519Z" stroke="#689F38" stroke-width="5"/>
<path d="M212.998 129H216.898V137.22L222.678 129H226.398V143H222.498V134.8L216.738 143H212.998V129ZM236.824 137.38C237.451 137.58 237.931 137.887 238.264 138.3C238.611 138.7 238.784 139.18 238.784 139.74C238.784 140.46 238.531 141.087 238.024 141.62C237.531 142.14 236.851 142.54 235.984 142.82C235.131 143.087 234.171 143.22 233.104 143.22C231.264 143.22 229.624 142.907 228.184 142.28L229.164 139.72C230.311 140.2 231.584 140.44 232.984 140.44C233.584 140.44 234.058 140.353 234.404 140.18C234.764 140.007 234.944 139.76 234.944 139.44C234.944 139.147 234.838 138.933 234.624 138.8C234.411 138.667 234.084 138.6 233.644 138.6H231.304V136.38H233.304C234.198 136.38 234.644 136.107 234.644 135.56C234.644 134.987 234.051 134.7 232.864 134.7C231.838 134.7 230.691 134.94 229.424 135.42L228.524 132.92C230.098 132.267 231.651 131.94 233.184 131.94C234.718 131.94 235.984 132.213 236.984 132.76C237.984 133.293 238.484 134.047 238.484 135.02C238.484 135.513 238.338 135.967 238.044 136.38C237.751 136.793 237.344 137.127 236.824 137.38ZM249.729 135.18H244.429V143H240.649V132.16H249.729V135.18ZM256.126 143.18C254.966 143.18 253.919 142.94 252.986 142.46C252.053 141.98 251.319 141.313 250.786 140.46C250.266 139.607 250.006 138.64 250.006 137.56C250.006 136.493 250.266 135.533 250.786 134.68C251.319 133.827 252.046 133.167 252.966 132.7C253.899 132.22 254.953 131.98 256.126 131.98C257.299 131.98 258.353 132.22 259.286 132.7C260.219 133.167 260.946 133.827 261.466 134.68C261.986 135.52 262.246 136.48 262.246 137.56C262.246 138.64 261.986 139.607 261.466 140.46C260.946 141.313 260.219 141.98 259.286 142.46C258.353 142.94 257.299 143.18 256.126 143.18ZM256.126 140.16C256.793 140.16 257.339 139.933 257.766 139.48C258.193 139.013 258.406 138.373 258.406 137.56C258.406 136.76 258.193 136.133 257.766 135.68C257.339 135.227 256.793 135 256.126 135C255.459 135 254.913 135.227 254.486 135.68C254.059 136.133 253.846 136.76 253.846 137.56C253.846 138.373 254.059 139.013 254.486 139.48C254.913 139.933 255.459 140.16 256.126 140.16ZM273.317 135.18H269.837V143H266.057V135.18H262.557V132.16H273.317V135.18ZM279.21 131.98C281.01 131.98 282.383 132.393 283.33 133.22C284.276 134.033 284.75 135.287 284.75 136.98V143H281.21V141.6C280.663 142.653 279.596 143.18 278.01 143.18C277.17 143.18 276.443 143.033 275.83 142.74C275.216 142.447 274.75 142.053 274.43 141.56C274.123 141.053 273.97 140.48 273.97 139.84C273.97 138.813 274.363 138.02 275.15 137.46C275.936 136.887 277.15 136.6 278.79 136.6H280.95C280.883 135.453 280.116 134.88 278.65 134.88C278.13 134.88 277.603 134.967 277.07 135.14C276.536 135.3 276.083 135.527 275.71 135.82L274.43 133.24C275.03 132.84 275.756 132.533 276.61 132.32C277.476 132.093 278.343 131.98 279.21 131.98ZM279.07 140.78C279.51 140.78 279.896 140.673 280.23 140.46C280.563 140.247 280.803 139.933 280.95 139.52V138.58H279.31C278.203 138.58 277.65 138.947 277.65 139.68C277.65 140.013 277.776 140.28 278.03 140.48C278.283 140.68 278.63 140.78 279.07 140.78ZM295.776 137.32C297.016 137.733 297.636 138.587 297.636 139.88C297.636 140.853 297.256 141.62 296.496 142.18C295.736 142.727 294.616 143 293.136 143H287.036V132.16H292.856C294.269 132.16 295.363 132.407 296.136 132.9C296.923 133.393 297.316 134.087 297.316 134.98C297.316 135.5 297.183 135.96 296.916 136.36C296.649 136.76 296.269 137.08 295.776 137.32ZM290.436 136.52H292.516C293.396 136.52 293.836 136.193 293.836 135.54C293.836 134.913 293.396 134.6 292.516 134.6H290.436V136.52ZM292.796 140.54C293.716 140.54 294.176 140.207 294.176 139.54C294.176 138.873 293.729 138.54 292.836 138.54H290.436V140.54H292.796ZM310.595 132.16V143H306.795V135.18H304.055L303.975 136.84C303.922 138.253 303.782 139.42 303.555 140.34C303.329 141.26 302.955 141.98 302.435 142.5C301.915 143.007 301.202 143.26 300.295 143.26C299.829 143.26 299.215 143.173 298.455 143L298.615 139.9C298.855 139.927 299.015 139.94 299.095 139.94C299.509 139.94 299.822 139.807 300.035 139.54C300.249 139.273 300.395 138.92 300.475 138.48C300.555 138.027 300.609 137.427 300.635 136.68L300.795 132.16H310.595ZM313.149 132.16H316.929V137.84L321.469 132.16H324.969V143H321.169V137.3L316.669 143H313.149V132.16ZM336.264 137.32C337.504 137.733 338.124 138.587 338.124 139.88C338.124 140.853 337.744 141.62 336.984 142.18C336.224 142.727 335.104 143 333.624 143H327.524V132.16H333.344C334.757 132.16 335.851 132.407 336.624 132.9C337.411 133.393 337.804 134.087 337.804 134.98C337.804 135.5 337.671 135.96 337.404 136.36C337.137 136.76 336.757 137.08 336.264 137.32ZM330.924 136.52H333.004C333.884 136.52 334.324 136.193 334.324 135.54C334.324 134.913 333.884 134.6 333.004 134.6H330.924V136.52ZM333.284 140.54C334.204 140.54 334.664 140.207 334.664 139.54C334.664 138.873 334.217 138.54 333.324 138.54H330.924V140.54H333.284ZM344.464 131.98C346.264 131.98 347.637 132.393 348.584 133.22C349.53 134.033 350.004 135.287 350.004 136.98V143H346.464V141.6C345.917 142.653 344.85 143.18 343.264 143.18C342.424 143.18 341.697 143.033 341.084 142.74C340.47 142.447 340.004 142.053 339.684 141.56C339.377 141.053 339.224 140.48 339.224 139.84C339.224 138.813 339.617 138.02 340.404 137.46C341.19 136.887 342.404 136.6 344.044 136.6H346.204C346.137 135.453 345.37 134.88 343.904 134.88C343.384 134.88 342.857 134.967 342.324 135.14C341.79 135.3 341.337 135.527 340.964 135.82L339.684 133.24C340.284 132.84 341.01 132.533 341.864 132.32C342.73 132.093 343.597 131.98 344.464 131.98ZM344.324 140.78C344.764 140.78 345.15 140.673 345.484 140.46C345.817 140.247 346.057 139.933 346.204 139.52V138.58H344.564C343.457 138.58 342.904 138.947 342.904 139.68C342.904 140.013 343.03 140.28 343.284 140.48C343.537 140.68 343.884 140.78 344.324 140.78ZM363.27 137.6C363.27 137.627 363.25 137.94 363.21 138.54H355.33C355.49 139.1 355.796 139.533 356.25 139.84C356.716 140.133 357.296 140.28 357.99 140.28C358.51 140.28 358.956 140.207 359.33 140.06C359.716 139.913 360.103 139.673 360.49 139.34L362.49 141.42C361.436 142.593 359.896 143.18 357.87 143.18C356.603 143.18 355.49 142.94 354.53 142.46C353.57 141.98 352.823 141.313 352.29 140.46C351.77 139.607 351.51 138.64 351.51 137.56C351.51 136.493 351.763 135.54 352.27 134.7C352.79 133.847 353.503 133.18 354.41 132.7C355.316 132.22 356.336 131.98 357.47 131.98C358.55 131.98 359.53 132.207 360.41 132.66C361.29 133.1 361.983 133.747 362.49 134.6C363.01 135.44 363.27 136.44 363.27 137.6ZM357.49 134.68C356.903 134.68 356.41 134.847 356.01 135.18C355.623 135.513 355.376 135.967 355.27 136.54H359.71C359.603 135.967 359.35 135.513 358.95 135.18C358.563 134.847 358.076 134.68 357.49 134.68ZM375.798 143V137.3L373.018 142.04H371.398L368.698 137.22V143H365.278V132.16H369.278L372.298 137.82L375.618 132.16H379.198L379.218 143H375.798Z" fill="#689F38"/>
<path d="M261.986 171.5V182H260.066V173.15H254.621V182H252.701V171.5H261.986ZM268.307 182.105C267.497 182.105 266.767 181.93 266.117 181.58C265.467 181.23 264.957 180.745 264.587 180.125C264.227 179.495 264.047 178.785 264.047 177.995C264.047 177.205 264.227 176.5 264.587 175.88C264.957 175.26 265.467 174.775 266.117 174.425C266.767 174.075 267.497 173.9 268.307 173.9C269.127 173.9 269.862 174.075 270.512 174.425C271.162 174.775 271.667 175.26 272.027 175.88C272.397 176.5 272.582 177.205 272.582 177.995C272.582 178.785 272.397 179.495 272.027 180.125C271.667 180.745 271.162 181.23 270.512 181.58C269.862 181.93 269.127 182.105 268.307 182.105ZM268.307 180.5C268.997 180.5 269.567 180.27 270.017 179.81C270.467 179.35 270.692 178.745 270.692 177.995C270.692 177.245 270.467 176.64 270.017 176.18C269.567 175.72 268.997 175.49 268.307 175.49C267.617 175.49 267.047 175.72 266.597 176.18C266.157 176.64 265.937 177.245 265.937 177.995C265.937 178.745 266.157 179.35 266.597 179.81C267.047 180.27 267.617 180.5 268.307 180.5ZM282.896 180.41V183.785H281.141V182H274.961V183.785H273.221V180.41H273.596C274.106 180.39 274.451 180.065 274.631 179.435C274.821 178.795 274.946 177.895 275.006 176.735L275.111 173.99H281.711V180.41H282.896ZM276.716 176.87C276.676 177.79 276.601 178.54 276.491 179.12C276.381 179.7 276.181 180.13 275.891 180.41H279.836V175.58H276.761L276.716 176.87ZM289.011 173.9C289.791 173.9 290.486 174.07 291.096 174.41C291.716 174.75 292.201 175.23 292.551 175.85C292.901 176.47 293.076 177.185 293.076 177.995C293.076 178.805 292.901 179.525 292.551 180.155C292.201 180.775 291.716 181.255 291.096 181.595C290.486 181.935 289.791 182.105 289.011 182.105C287.931 182.105 287.076 181.745 286.446 181.025V184.91H284.571V173.99H286.356V175.04C286.666 174.66 287.046 174.375 287.496 174.185C287.956 173.995 288.461 173.9 289.011 173.9ZM288.801 180.5C289.491 180.5 290.056 180.27 290.496 179.81C290.946 179.35 291.171 178.745 291.171 177.995C291.171 177.245 290.946 176.64 290.496 176.18C290.056 175.72 289.491 175.49 288.801 175.49C288.351 175.49 287.946 175.595 287.586 175.805C287.226 176.005 286.941 176.295 286.731 176.675C286.521 177.055 286.416 177.495 286.416 177.995C286.416 178.495 286.521 178.935 286.731 179.315C286.941 179.695 287.226 179.99 287.586 180.2C287.946 180.4 288.351 180.5 288.801 180.5ZM298.512 182.105C297.702 182.105 296.972 181.93 296.322 181.58C295.672 181.23 295.162 180.745 294.792 180.125C294.432 179.495 294.252 178.785 294.252 177.995C294.252 177.205 294.432 176.5 294.792 175.88C295.162 175.26 295.672 174.775 296.322 174.425C296.972 174.075 297.702 173.9 298.512 173.9C299.332 173.9 300.067 174.075 300.717 174.425C301.367 174.775 301.872 175.26 302.232 175.88C302.602 176.5 302.787 177.205 302.787 177.995C302.787 178.785 302.602 179.495 302.232 180.125C301.872 180.745 301.367 181.23 300.717 181.58C300.067 181.93 299.332 182.105 298.512 182.105ZM298.512 180.5C299.202 180.5 299.772 180.27 300.222 179.81C300.672 179.35 300.897 178.745 300.897 177.995C300.897 177.245 300.672 176.64 300.222 176.18C299.772 175.72 299.202 175.49 298.512 175.49C297.822 175.49 297.252 175.72 296.802 176.18C296.362 176.64 296.142 177.245 296.142 177.995C296.142 178.745 296.362 179.35 296.802 179.81C297.252 180.27 297.822 180.5 298.512 180.5ZM308.974 174.38C309.734 174.38 310.404 174.545 310.984 174.875C311.564 175.195 312.014 175.645 312.334 176.225C312.664 176.805 312.829 177.47 312.829 178.22C312.829 178.99 312.649 179.675 312.289 180.275C311.929 180.865 311.424 181.325 310.774 181.655C310.124 181.985 309.384 182.15 308.554 182.15C307.164 182.15 306.089 181.69 305.329 180.77C304.569 179.85 304.189 178.525 304.189 176.795C304.189 175.185 304.534 173.91 305.224 172.97C305.914 172.03 306.969 171.41 308.389 171.11L312.109 170.315L312.379 171.995L309.004 172.685C308.034 172.885 307.309 173.225 306.829 173.705C306.349 174.185 306.069 174.86 305.989 175.73C306.349 175.3 306.784 174.97 307.294 174.74C307.804 174.5 308.364 174.38 308.974 174.38ZM308.599 180.635C309.289 180.635 309.844 180.415 310.264 179.975C310.694 179.525 310.909 178.955 310.909 178.265C310.909 177.575 310.694 177.02 310.264 176.6C309.844 176.18 309.289 175.97 308.599 175.97C307.899 175.97 307.334 176.18 306.904 176.6C306.474 177.02 306.259 177.575 306.259 178.265C306.259 178.965 306.474 179.535 306.904 179.975C307.344 180.415 307.909 180.635 308.599 180.635ZM314.644 173.99H316.519V177.245H320.554V173.99H322.429V182H320.554V178.835H316.519V182H314.644V173.99ZM332.442 178.04C332.442 178.17 332.432 178.355 332.412 178.595H326.127C326.237 179.185 326.522 179.655 326.982 180.005C327.452 180.345 328.032 180.515 328.722 180.515C329.602 180.515 330.327 180.225 330.897 179.645L331.902 180.8C331.542 181.23 331.087 181.555 330.537 181.775C329.987 181.995 329.367 182.105 328.677 182.105C327.797 182.105 327.022 181.93 326.352 181.58C325.682 181.23 325.162 180.745 324.792 180.125C324.432 179.495 324.252 178.785 324.252 177.995C324.252 177.215 324.427 176.515 324.777 175.895C325.137 175.265 325.632 174.775 326.262 174.425C326.892 174.075 327.602 173.9 328.392 173.9C329.172 173.9 329.867 174.075 330.477 174.425C331.097 174.765 331.577 175.25 331.917 175.88C332.267 176.5 332.442 177.22 332.442 178.04ZM328.392 175.4C327.792 175.4 327.282 175.58 326.862 175.94C326.452 176.29 326.202 176.76 326.112 177.35H330.657C330.577 176.77 330.332 176.3 329.922 175.94C329.512 175.58 329.002 175.4 328.392 175.4ZM341.993 178.04C341.993 178.17 341.983 178.355 341.963 178.595H335.678C335.788 179.185 336.073 179.655 336.533 180.005C337.003 180.345 337.583 180.515 338.273 180.515C339.153 180.515 339.878 180.225 340.448 179.645L341.453 180.8C341.093 181.23 340.638 181.555 340.088 181.775C339.538 181.995 338.918 182.105 338.228 182.105C337.348 182.105 336.573 181.93 335.903 181.58C335.233 181.23 334.713 180.745 334.343 180.125C333.983 179.495 333.803 178.785 333.803 177.995C333.803 177.215 333.978 176.515 334.328 175.895C334.688 175.265 335.183 174.775 335.813 174.425C336.443 174.075 337.153 173.9 337.943 173.9C338.723 173.9 339.418 174.075 340.028 174.425C340.648 174.765 341.128 175.25 341.468 175.88C341.818 176.5 341.993 177.22 341.993 178.04ZM337.943 175.4C337.343 175.4 336.833 175.58 336.413 175.94C336.003 176.29 335.753 176.76 335.663 177.35H340.208C340.128 176.77 339.883 176.3 339.473 175.94C339.063 175.58 338.553 175.4 337.943 175.4Z" fill="#689F38"/>
<path d="M251.216 183.5H342.788V184.25H251.216V183.5Z" fill="#689F38"/>
<path d="M147.5 247.33C152.141 244.651 157.859 244.651 162.5 247.33L281.734 316.17C286.375 318.849 289.234 323.801 289.234 329.16V466.84C289.234 472.199 286.375 477.151 281.734 479.83L162.5 548.67C157.859 551.349 152.141 551.349 147.5 548.67L28.2661 479.83C23.625 477.151 20.7661 472.199 20.7661 466.84V329.16C20.7661 323.801 23.6251 318.849 28.2661 316.17L147.5 247.33Z" fill="white"/>
<path d="M161.25 249.495L280.484 318.335C284.351 320.568 286.734 324.694 286.734 329.16V466.84C286.734 471.306 284.351 475.432 280.484 477.665L161.25 546.505C157.382 548.738 152.618 548.738 148.75 546.505L29.5161 477.665C25.6485 475.432 23.2661 471.306 23.2661 466.84V329.16C23.2661 324.694 25.6486 320.568 29.5161 318.335L148.75 249.495C152.618 247.262 157.382 247.262 161.25 249.495Z" stroke="#689F38" stroke-width="5"/>
<path d="M58.7277 365.28C57.2477 365.28 55.9143 364.967 54.7277 364.34C53.5543 363.713 52.6277 362.847 51.9477 361.74C51.281 360.633 50.9477 359.387 50.9477 358C50.9477 356.613 51.281 355.367 51.9477 354.26C52.6277 353.153 53.5543 352.287 54.7277 351.66C55.9143 351.033 57.2477 350.72 58.7277 350.72C60.2077 350.72 61.5343 351.033 62.7077 351.66C63.8943 352.287 64.821 353.153 65.4877 354.26C66.1677 355.367 66.5077 356.613 66.5077 358C66.5077 359.387 66.1677 360.633 65.4877 361.74C64.821 362.847 63.8943 363.713 62.7077 364.34C61.5343 364.967 60.2077 365.28 58.7277 365.28ZM58.7277 362C59.4343 362 60.0743 361.833 60.6477 361.5C61.221 361.167 61.6743 360.7 62.0077 360.1C62.341 359.487 62.5077 358.787 62.5077 358C62.5077 357.213 62.341 356.52 62.0077 355.92C61.6743 355.307 61.221 354.833 60.6477 354.5C60.0743 354.167 59.4343 354 58.7277 354C58.021 354 57.381 354.167 56.8077 354.5C56.2343 354.833 55.781 355.307 55.4477 355.92C55.1143 356.52 54.9477 357.213 54.9477 358C54.9477 358.787 55.1143 359.487 55.4477 360.1C55.781 360.7 56.2343 361.167 56.8077 361.5C57.381 361.833 58.021 362 58.7277 362ZM73.485 361.14H72.205V365H68.405V354.16H72.205V358.16H73.565L76.225 354.16H80.245L76.605 359.36L80.485 365H76.005L73.485 361.14ZM85.9695 353.98C87.7695 353.98 89.1429 354.393 90.0895 355.22C91.0362 356.033 91.5095 357.287 91.5095 358.98V365H87.9695V363.6C87.4229 364.653 86.3562 365.18 84.7695 365.18C83.9295 365.18 83.2029 365.033 82.5895 364.74C81.9762 364.447 81.5095 364.053 81.1895 363.56C80.8829 363.053 80.7295 362.48 80.7295 361.84C80.7295 360.813 81.1229 360.02 81.9095 359.46C82.6962 358.887 83.9095 358.6 85.5495 358.6H87.7095C87.6429 357.453 86.8762 356.88 85.4095 356.88C84.8895 356.88 84.3629 356.967 83.8295 357.14C83.2962 357.3 82.8429 357.527 82.4695 357.82L81.1895 355.24C81.7895 354.84 82.5162 354.533 83.3695 354.32C84.2362 354.093 85.1029 353.98 85.9695 353.98ZM85.8295 362.78C86.2695 362.78 86.6562 362.673 86.9895 362.46C87.3229 362.247 87.5629 361.933 87.7095 361.52V360.58H86.0695C84.9629 360.58 84.4095 360.947 84.4095 361.68C84.4095 362.013 84.5362 362.28 84.7895 362.48C85.0429 362.68 85.3895 362.78 85.8295 362.78ZM101.397 359.38C102.023 359.58 102.503 359.887 102.837 360.3C103.183 360.7 103.357 361.18 103.357 361.74C103.357 362.46 103.103 363.087 102.597 363.62C102.103 364.14 101.423 364.54 100.557 364.82C99.7032 365.087 98.7432 365.22 97.6766 365.22C95.8366 365.22 94.1966 364.907 92.7566 364.28L93.7366 361.72C94.8832 362.2 96.1566 362.44 97.5566 362.44C98.1566 362.44 98.6299 362.353 98.9766 362.18C99.3366 362.007 99.5166 361.76 99.5166 361.44C99.5166 361.147 99.4099 360.933 99.1966 360.8C98.9832 360.667 98.6566 360.6 98.2166 360.6H95.8766V358.38H97.8766C98.7699 358.38 99.2166 358.107 99.2166 357.56C99.2166 356.987 98.6232 356.7 97.4366 356.7C96.4099 356.7 95.2632 356.94 93.9966 357.42L93.0966 354.92C94.6699 354.267 96.2232 353.94 97.7566 353.94C99.2899 353.94 100.557 354.213 101.557 354.76C102.557 355.293 103.057 356.047 103.057 357.02C103.057 357.513 102.91 357.967 102.617 358.38C102.323 358.793 101.917 359.127 101.397 359.38ZM111.421 357.52C112.848 357.533 113.921 357.853 114.641 358.48C115.361 359.107 115.721 360 115.721 361.16C115.721 362.373 115.301 363.32 114.461 364C113.635 364.68 112.461 365.013 110.941 365H105.221V354.16H109.001V357.52H111.421ZM116.641 354.16H120.421V365H116.641V354.16ZM110.561 362.4C111.521 362.4 112.001 361.967 112.001 361.1C112.001 360.673 111.881 360.36 111.641 360.16C111.401 359.96 111.041 359.853 110.561 359.84H109.001V362.38L110.561 362.4ZM131.735 359.32C132.975 359.733 133.595 360.587 133.595 361.88C133.595 362.853 133.215 363.62 132.455 364.18C131.695 364.727 130.575 365 129.095 365H122.995V354.16H128.815C130.228 354.16 131.322 354.407 132.095 354.9C132.882 355.393 133.275 356.087 133.275 356.98C133.275 357.5 133.142 357.96 132.875 358.36C132.608 358.76 132.228 359.08 131.735 359.32ZM126.395 358.52H128.475C129.355 358.52 129.795 358.193 129.795 357.54C129.795 356.913 129.355 356.6 128.475 356.6H126.395V358.52ZM128.755 362.54C129.675 362.54 130.135 362.207 130.135 361.54C130.135 360.873 129.688 360.54 128.795 360.54H126.395V362.54H128.755ZM139.934 353.98C141.734 353.98 143.108 354.393 144.054 355.22C145.001 356.033 145.474 357.287 145.474 358.98V365H141.934V363.6C141.388 364.653 140.321 365.18 138.734 365.18C137.894 365.18 137.168 365.033 136.554 364.74C135.941 364.447 135.474 364.053 135.154 363.56C134.848 363.053 134.694 362.48 134.694 361.84C134.694 360.813 135.088 360.02 135.874 359.46C136.661 358.887 137.874 358.6 139.514 358.6H141.674C141.608 357.453 140.841 356.88 139.374 356.88C138.854 356.88 138.328 356.967 137.794 357.14C137.261 357.3 136.808 357.527 136.434 357.82L135.154 355.24C135.754 354.84 136.481 354.533 137.334 354.32C138.201 354.093 139.068 353.98 139.934 353.98ZM139.794 362.78C140.234 362.78 140.621 362.673 140.954 362.46C141.288 362.247 141.528 361.933 141.674 361.52V360.58H140.034C138.928 360.58 138.374 360.947 138.374 361.68C138.374 362.013 138.501 362.28 138.754 362.48C139.008 362.68 139.354 362.78 139.794 362.78ZM158.74 359.6C158.74 359.627 158.72 359.94 158.68 360.54H150.8C150.96 361.1 151.267 361.533 151.72 361.84C152.187 362.133 152.767 362.28 153.46 362.28C153.98 362.28 154.427 362.207 154.8 362.06C155.187 361.913 155.574 361.673 155.96 361.34L157.96 363.42C156.907 364.593 155.367 365.18 153.34 365.18C152.074 365.18 150.96 364.94 150 364.46C149.04 363.98 148.294 363.313 147.76 362.46C147.24 361.607 146.98 360.64 146.98 359.56C146.98 358.493 147.234 357.54 147.74 356.7C148.26 355.847 148.974 355.18 149.88 354.7C150.787 354.22 151.807 353.98 152.94 353.98C154.02 353.98 155 354.207 155.88 354.66C156.76 355.1 157.454 355.747 157.96 356.6C158.48 357.44 158.74 358.44 158.74 359.6ZM152.96 356.68C152.374 356.68 151.88 356.847 151.48 357.18C151.094 357.513 150.847 357.967 150.74 358.54H155.18C155.074 357.967 154.82 357.513 154.42 357.18C154.034 356.847 153.547 356.68 152.96 356.68ZM171.269 365V359.3L168.489 364.04H166.869L164.169 359.22V365H160.749V354.16H164.749L167.769 359.82L171.089 354.16H174.669L174.689 365H171.269ZM194.633 354.16L189.953 365.44C189.406 366.773 188.74 367.707 187.953 368.24C187.166 368.787 186.206 369.06 185.073 369.06C184.5 369.06 183.92 368.967 183.333 368.78C182.76 368.607 182.293 368.373 181.933 368.08L183.253 365.42C183.466 365.62 183.72 365.773 184.013 365.88C184.32 366 184.626 366.06 184.933 366.06C185.293 366.06 185.586 365.987 185.813 365.84C186.053 365.693 186.253 365.46 186.413 365.14L181.773 354.16H185.673L188.333 360.78L191.013 354.16H194.633ZM201.013 365.18C199.813 365.18 198.74 364.94 197.793 364.46C196.846 363.98 196.106 363.313 195.573 362.46C195.053 361.607 194.793 360.64 194.793 359.56C194.793 358.48 195.053 357.52 195.573 356.68C196.106 355.827 196.846 355.167 197.793 354.7C198.74 354.22 199.813 353.98 201.013 353.98C202.24 353.98 203.3 354.247 204.193 354.78C205.086 355.3 205.72 356.027 206.093 356.96L203.153 358.46C202.66 357.487 201.94 357 200.993 357C200.313 357 199.746 357.227 199.293 357.68C198.853 358.133 198.633 358.76 198.633 359.56C198.633 360.373 198.853 361.013 199.293 361.48C199.746 361.933 200.313 362.16 200.993 362.16C201.94 362.16 202.66 361.673 203.153 360.7L206.093 362.2C205.72 363.133 205.086 363.867 204.193 364.4C203.3 364.92 202.24 365.18 201.013 365.18ZM218.644 354.16V365H214.844V357.18H212.104L212.024 358.84C211.971 360.253 211.831 361.42 211.604 362.34C211.378 363.26 211.004 363.98 210.484 364.5C209.964 365.007 209.251 365.26 208.344 365.26C207.878 365.26 207.264 365.173 206.504 365L206.664 361.9C206.904 361.927 207.064 361.94 207.144 361.94C207.558 361.94 207.871 361.807 208.084 361.54C208.298 361.273 208.444 360.92 208.524 360.48C208.604 360.027 208.658 359.427 208.684 358.68L208.844 354.16H218.644ZM232.758 354.16L228.078 365.44C227.531 366.773 226.865 367.707 226.078 368.24C225.291 368.787 224.331 369.06 223.198 369.06C222.625 369.06 222.045 368.967 221.458 368.78C220.885 368.607 220.418 368.373 220.058 368.08L221.378 365.42C221.591 365.62 221.845 365.773 222.138 365.88C222.445 366 222.751 366.06 223.058 366.06C223.418 366.06 223.711 365.987 223.938 365.84C224.178 365.693 224.378 365.46 224.538 365.14L219.898 354.16H223.798L226.458 360.78L229.138 354.16H232.758ZM243.071 357.18H237.771V365H233.991V354.16H243.071V357.18ZM244.557 354.16H248.337V359.84L252.877 354.16H256.377V365H252.577V359.3L248.077 365H244.557V354.16ZM66.884 393V387.3L64.104 392.04H62.484L59.784 387.22V393H56.364V382.16H60.364L63.384 387.82L66.704 382.16H70.284L70.304 393H66.884ZM72.8679 382.16H76.6479V387.84L81.1879 382.16H84.6879V393H80.8879V387.3L76.3879 393H72.8679V382.16ZM87.2429 382.16H91.0229V386.18H94.9229V382.16H98.7229V393H94.9229V389.2H91.0229V393H87.2429V382.16ZM101.286 382.16H105.066V387.84L109.606 382.16H113.106V393H109.306V387.3L104.806 393H101.286V382.16ZM126.921 393.18C125.721 393.18 124.648 392.94 123.701 392.46C122.755 391.98 122.015 391.313 121.481 390.46C120.961 389.607 120.701 388.64 120.701 387.56C120.701 386.48 120.961 385.52 121.481 384.68C122.015 383.827 122.755 383.167 123.701 382.7C124.648 382.22 125.721 381.98 126.921 381.98C128.148 381.98 129.208 382.247 130.101 382.78C130.995 383.3 131.628 384.027 132.001 384.96L129.061 386.46C128.568 385.487 127.848 385 126.901 385C126.221 385 125.655 385.227 125.201 385.68C124.761 386.133 124.541 386.76 124.541 387.56C124.541 388.373 124.761 389.013 125.201 389.48C125.655 389.933 126.221 390.16 126.901 390.16C127.848 390.16 128.568 389.673 129.061 388.7L132.001 390.2C131.628 391.133 130.995 391.867 130.101 392.4C129.208 392.92 128.148 393.18 126.921 393.18ZM142.331 387.32C143.571 387.733 144.191 388.587 144.191 389.88C144.191 390.853 143.811 391.62 143.051 392.18C142.291 392.727 141.171 393 139.691 393H133.591V382.16H139.411C140.824 382.16 141.917 382.407 142.691 382.9C143.477 383.393 143.871 384.087 143.871 384.98C143.871 385.5 143.737 385.96 143.471 386.36C143.204 386.76 142.824 387.08 142.331 387.32ZM136.991 386.52H139.071C139.951 386.52 140.391 386.193 140.391 385.54C140.391 384.913 139.951 384.6 139.071 384.6H136.991V386.52ZM139.351 390.54C140.271 390.54 140.731 390.207 140.731 389.54C140.731 388.873 140.284 388.54 139.391 388.54H136.991V390.54H139.351ZM150.53 381.98C152.33 381.98 153.703 382.393 154.65 383.22C155.597 384.033 156.07 385.287 156.07 386.98V393H152.53V391.6C151.983 392.653 150.917 393.18 149.33 393.18C148.49 393.18 147.763 393.033 147.15 392.74C146.537 392.447 146.07 392.053 145.75 391.56C145.443 391.053 145.29 390.48 145.29 389.84C145.29 388.813 145.683 388.02 146.47 387.46C147.257 386.887 148.47 386.6 150.11 386.6H152.27C152.203 385.453 151.437 384.88 149.97 384.88C149.45 384.88 148.923 384.967 148.39 385.14C147.857 385.3 147.403 385.527 147.03 385.82L145.75 383.24C146.35 382.84 147.077 382.533 147.93 382.32C148.797 382.093 149.663 381.98 150.53 381.98ZM150.39 390.78C150.83 390.78 151.217 390.673 151.55 390.46C151.883 390.247 152.123 389.933 152.27 389.52V388.58H150.63C149.523 388.58 148.97 388.947 148.97 389.68C148.97 390.013 149.097 390.28 149.35 390.48C149.603 390.68 149.95 390.78 150.39 390.78ZM169.336 387.6C169.336 387.627 169.316 387.94 169.276 388.54H161.396C161.556 389.1 161.863 389.533 162.316 389.84C162.783 390.133 163.363 390.28 164.056 390.28C164.576 390.28 165.023 390.207 165.396 390.06C165.783 389.913 166.17 389.673 166.556 389.34L168.556 391.42C167.503 392.593 165.963 393.18 163.936 393.18C162.67 393.18 161.556 392.94 160.596 392.46C159.636 391.98 158.89 391.313 158.356 390.46C157.836 389.607 157.576 388.64 157.576 387.56C157.576 386.493 157.83 385.54 158.336 384.7C158.856 383.847 159.57 383.18 160.476 382.7C161.383 382.22 162.403 381.98 163.536 381.98C164.616 381.98 165.596 382.207 166.476 382.66C167.356 383.1 168.05 383.747 168.556 384.6C169.076 385.44 169.336 386.44 169.336 387.6ZM163.556 384.68C162.97 384.68 162.476 384.847 162.076 385.18C161.69 385.513 161.443 385.967 161.336 386.54H165.776C165.67 385.967 165.416 385.513 165.016 385.18C164.63 384.847 164.143 384.68 163.556 384.68ZM178.044 383.12C179.098 383.12 180.011 383.327 180.784 383.74C181.558 384.14 182.144 384.72 182.544 385.48C182.958 386.227 183.164 387.1 183.164 388.1C183.164 389.127 182.898 390.033 182.364 390.82C181.844 391.593 181.118 392.2 180.184 392.64C179.264 393.067 178.224 393.28 177.064 393.28C175.158 393.28 173.638 392.687 172.504 391.5C171.371 390.313 170.804 388.533 170.804 386.16C170.804 381.707 172.778 379.107 176.724 378.36L181.984 377.36L182.504 380.54L177.944 381.4C176.784 381.613 175.931 381.96 175.384 382.44C174.851 382.907 174.531 383.587 174.424 384.48C175.398 383.573 176.604 383.12 178.044 383.12ZM177.084 390.4C177.764 390.4 178.298 390.18 178.684 389.74C179.084 389.3 179.284 388.753 179.284 388.1C179.284 387.407 179.084 386.867 178.684 386.48C178.284 386.08 177.751 385.88 177.084 385.88C176.404 385.88 175.858 386.08 175.444 386.48C175.044 386.88 174.844 387.427 174.844 388.12C174.844 388.787 175.051 389.333 175.464 389.76C175.878 390.187 176.418 390.4 177.084 390.4ZM190.259 393.18C189.099 393.18 188.052 392.94 187.119 392.46C186.185 391.98 185.452 391.313 184.919 390.46C184.399 389.607 184.139 388.64 184.139 387.56C184.139 386.493 184.399 385.533 184.919 384.68C185.452 383.827 186.179 383.167 187.099 382.7C188.032 382.22 189.085 381.98 190.259 381.98C191.432 381.98 192.485 382.22 193.419 382.7C194.352 383.167 195.079 383.827 195.599 384.68C196.119 385.52 196.379 386.48 196.379 387.56C196.379 388.64 196.119 389.607 195.599 390.46C195.079 391.313 194.352 391.98 193.419 392.46C192.485 392.94 191.432 393.18 190.259 393.18ZM190.259 390.16C190.925 390.16 191.472 389.933 191.899 389.48C192.325 389.013 192.539 388.373 192.539 387.56C192.539 386.76 192.325 386.133 191.899 385.68C191.472 385.227 190.925 385 190.259 385C189.592 385 189.045 385.227 188.619 385.68C188.192 386.133 187.979 386.76 187.979 387.56C187.979 388.373 188.192 389.013 188.619 389.48C189.045 389.933 189.592 390.16 190.259 390.16ZM198.161 382.16H201.941V387.84L206.481 382.16H209.981V393H206.181V387.3L201.681 393H198.161V382.16ZM203.821 381.12C202.541 381.12 201.594 380.853 200.981 380.32C200.381 379.773 200.074 378.94 200.061 377.82H202.521C202.534 378.287 202.641 378.64 202.841 378.88C203.041 379.107 203.361 379.22 203.801 379.22C204.241 379.22 204.568 379.1 204.781 378.86C205.008 378.62 205.121 378.273 205.121 377.82H207.621C207.621 378.94 207.308 379.773 206.681 380.32C206.068 380.853 205.114 381.12 203.821 381.12ZM212.536 382.16H216.316V386.18H220.216V382.16H224.016V393H220.216V389.2H216.316V393H212.536V382.16ZM231.919 393.18C230.759 393.18 229.712 392.94 228.779 392.46C227.845 391.98 227.112 391.313 226.579 390.46C226.059 389.607 225.799 388.64 225.799 387.56C225.799 386.493 226.059 385.533 226.579 384.68C227.112 383.827 227.839 383.167 228.759 382.7C229.692 382.22 230.745 381.98 231.919 381.98C233.092 381.98 234.145 382.22 235.079 382.7C236.012 383.167 236.739 383.827 237.259 384.68C237.779 385.52 238.039 386.48 238.039 387.56C238.039 388.64 237.779 389.607 237.259 390.46C236.739 391.313 236.012 391.98 235.079 392.46C234.145 392.94 233.092 393.18 231.919 393.18ZM231.919 390.16C232.585 390.16 233.132 389.933 233.559 389.48C233.985 389.013 234.199 388.373 234.199 387.56C234.199 386.76 233.985 386.133 233.559 385.68C233.132 385.227 232.585 385 231.919 385C231.252 385 230.705 385.227 230.279 385.68C229.852 386.133 229.639 386.76 229.639 387.56C229.639 388.373 229.852 389.013 230.279 389.48C230.705 389.933 231.252 390.16 231.919 390.16ZM239.821 382.16H243.601V387.84L248.141 382.16H251.641V393H247.841V387.3L243.341 393H239.821V382.16ZM245.481 381.12C244.201 381.12 243.254 380.853 242.641 380.32C242.041 379.773 241.734 378.94 241.721 377.82H244.181C244.194 378.287 244.301 378.64 244.501 378.88C244.701 379.107 245.021 379.22 245.461 379.22C245.901 379.22 246.228 379.1 246.441 378.86C246.668 378.62 246.781 378.273 246.781 377.82H249.281C249.281 378.94 248.968 379.773 248.341 380.32C247.728 380.853 246.774 381.12 245.481 381.12ZM88.1419 421.18C86.9419 421.18 85.8685 420.94 84.9219 420.46C83.9752 419.98 83.2352 419.313 82.7019 418.46C82.1819 417.607 81.9219 416.64 81.9219 415.56C81.9219 414.48 82.1819 413.52 82.7019 412.68C83.2352 411.827 83.9752 411.167 84.9219 410.7C85.8685 410.22 86.9419 409.98 88.1419 409.98C89.3685 409.98 90.4285 410.247 91.3219 410.78C92.2152 411.3 92.8485 412.027 93.2219 412.96L90.2819 414.46C89.7885 413.487 89.0685 413 88.1219 413C87.4419 413 86.8752 413.227 86.4219 413.68C85.9819 414.133 85.7619 414.76 85.7619 415.56C85.7619 416.373 85.9819 417.013 86.4219 417.48C86.8752 417.933 87.4419 418.16 88.1219 418.16C89.0685 418.16 89.7885 417.673 90.2819 416.7L93.2219 418.2C92.8485 419.133 92.2152 419.867 91.3219 420.4C90.4285 420.92 89.3685 421.18 88.1419 421.18ZM106.011 410.16V421H102.231V413.18H98.5913V421H94.8113V410.16H106.011ZM119.58 415.6C119.58 415.627 119.56 415.94 119.52 416.54H111.64C111.8 417.1 112.107 417.533 112.56 417.84C113.027 418.133 113.607 418.28 114.3 418.28C114.82 418.28 115.267 418.207 115.64 418.06C116.027 417.913 116.414 417.673 116.8 417.34L118.8 419.42C117.747 420.593 116.207 421.18 114.18 421.18C112.914 421.18 111.8 420.94 110.84 420.46C109.88 419.98 109.134 419.313 108.6 418.46C108.08 417.607 107.82 416.64 107.82 415.56C107.82 414.493 108.074 413.54 108.58 412.7C109.1 411.847 109.814 411.18 110.72 410.7C111.627 410.22 112.647 409.98 113.78 409.98C114.86 409.98 115.84 410.207 116.72 410.66C117.6 411.1 118.294 411.747 118.8 412.6C119.32 413.44 119.58 414.44 119.58 415.6ZM113.8 412.68C113.214 412.68 112.72 412.847 112.32 413.18C111.934 413.513 111.687 413.967 111.58 414.54H116.02C115.914 413.967 115.66 413.513 115.26 413.18C114.874 412.847 114.387 412.68 113.8 412.68ZM134.189 417.96V423.26H130.669V421H121.589V410.16H125.369V417.96H128.889V410.16H132.689V417.96H134.189ZM145.507 413.18H142.027V421H138.247V413.18H134.747V410.16H145.507V413.18ZM157.53 415.6C157.53 415.627 157.51 415.94 157.47 416.54H149.59C149.75 417.1 150.056 417.533 150.51 417.84C150.976 418.133 151.556 418.28 152.25 418.28C152.77 418.28 153.216 418.207 153.59 418.06C153.976 417.913 154.363 417.673 154.75 417.34L156.75 419.42C155.696 420.593 154.156 421.18 152.13 421.18C150.863 421.18 149.75 420.94 148.79 420.46C147.83 419.98 147.083 419.313 146.55 418.46C146.03 417.607 145.77 416.64 145.77 415.56C145.77 414.493 146.023 413.54 146.53 412.7C147.05 411.847 147.763 411.18 148.67 410.7C149.576 410.22 150.596 409.98 151.73 409.98C152.81 409.98 153.79 410.207 154.67 410.66C155.55 411.1 156.243 411.747 156.75 412.6C157.27 413.44 157.53 414.44 157.53 415.6ZM151.75 412.68C151.163 412.68 150.67 412.847 150.27 413.18C149.883 413.513 149.636 413.967 149.53 414.54H153.97C153.863 413.967 153.61 413.513 153.21 413.18C152.823 412.847 152.336 412.68 151.75 412.68ZM166.105 421L164.165 418.16L162.085 421H157.965L162.085 415.58L158.085 410.16H162.365L164.285 412.9L166.285 410.16H170.305L166.305 415.44L170.445 421H166.105ZM171.725 410.16H175.505V414.18H179.405V410.16H183.205V421H179.405V417.2H175.505V421H171.725V410.16ZM185.768 410.16H189.548V415.84L194.088 410.16H197.588V421H193.788V415.3L189.288 421H185.768V410.16ZM205.223 417.14H203.943V421H200.143V410.16H203.943V414.16H205.303L207.963 410.16H211.983L208.343 415.36L212.223 421H207.743L205.223 417.14ZM213.483 410.16H217.263V415.84L221.803 410.16H225.303V421H221.503V415.3L217.003 421H213.483V410.16Z" fill="#689F38"/>
<path d="M119.986 448.5V459H118.066V450.15H112.621V459H110.701V448.5H119.986ZM126.307 459.105C125.497 459.105 124.767 458.93 124.117 458.58C123.467 458.23 122.957 457.745 122.587 457.125C122.227 456.495 122.047 455.785 122.047 454.995C122.047 454.205 122.227 453.5 122.587 452.88C122.957 452.26 123.467 451.775 124.117 451.425C124.767 451.075 125.497 450.9 126.307 450.9C127.127 450.9 127.862 451.075 128.512 451.425C129.162 451.775 129.667 452.26 130.027 452.88C130.397 453.5 130.582 454.205 130.582 454.995C130.582 455.785 130.397 456.495 130.027 457.125C129.667 457.745 129.162 458.23 128.512 458.58C127.862 458.93 127.127 459.105 126.307 459.105ZM126.307 457.5C126.997 457.5 127.567 457.27 128.017 456.81C128.467 456.35 128.692 455.745 128.692 454.995C128.692 454.245 128.467 453.64 128.017 453.18C127.567 452.72 126.997 452.49 126.307 452.49C125.617 452.49 125.047 452.72 124.597 453.18C124.157 453.64 123.937 454.245 123.937 454.995C123.937 455.745 124.157 456.35 124.597 456.81C125.047 457.27 125.617 457.5 126.307 457.5ZM140.896 457.41V460.785H139.141V459H132.961V460.785H131.221V457.41H131.596C132.106 457.39 132.451 457.065 132.631 456.435C132.821 455.795 132.946 454.895 133.006 453.735L133.111 450.99H139.711V457.41H140.896ZM134.716 453.87C134.676 454.79 134.601 455.54 134.491 456.12C134.381 456.7 134.181 457.13 133.891 457.41H137.836V452.58H134.761L134.716 453.87ZM147.011 450.9C147.791 450.9 148.486 451.07 149.096 451.41C149.716 451.75 150.201 452.23 150.551 452.85C150.901 453.47 151.076 454.185 151.076 454.995C151.076 455.805 150.901 456.525 150.551 457.155C150.201 457.775 149.716 458.255 149.096 458.595C148.486 458.935 147.791 459.105 147.011 459.105C145.931 459.105 145.076 458.745 144.446 458.025V461.91H142.571V450.99H144.356V452.04C144.666 451.66 145.046 451.375 145.496 451.185C145.956 450.995 146.461 450.9 147.011 450.9ZM146.801 457.5C147.491 457.5 148.056 457.27 148.496 456.81C148.946 456.35 149.171 455.745 149.171 454.995C149.171 454.245 148.946 453.64 148.496 453.18C148.056 452.72 147.491 452.49 146.801 452.49C146.351 452.49 145.946 452.595 145.586 452.805C145.226 453.005 144.941 453.295 144.731 453.675C144.521 454.055 144.416 454.495 144.416 454.995C144.416 455.495 144.521 455.935 144.731 456.315C144.941 456.695 145.226 456.99 145.586 457.2C145.946 457.4 146.351 457.5 146.801 457.5ZM156.512 459.105C155.702 459.105 154.972 458.93 154.322 458.58C153.672 458.23 153.162 457.745 152.792 457.125C152.432 456.495 152.252 455.785 152.252 454.995C152.252 454.205 152.432 453.5 152.792 452.88C153.162 452.26 153.672 451.775 154.322 451.425C154.972 451.075 155.702 450.9 156.512 450.9C157.332 450.9 158.067 451.075 158.717 451.425C159.367 451.775 159.872 452.26 160.232 452.88C160.602 453.5 160.787 454.205 160.787 454.995C160.787 455.785 160.602 456.495 160.232 457.125C159.872 457.745 159.367 458.23 158.717 458.58C158.067 458.93 157.332 459.105 156.512 459.105ZM156.512 457.5C157.202 457.5 157.772 457.27 158.222 456.81C158.672 456.35 158.897 455.745 158.897 454.995C158.897 454.245 158.672 453.64 158.222 453.18C157.772 452.72 157.202 452.49 156.512 452.49C155.822 452.49 155.252 452.72 154.802 453.18C154.362 453.64 154.142 454.245 154.142 454.995C154.142 455.745 154.362 456.35 154.802 456.81C155.252 457.27 155.822 457.5 156.512 457.5ZM166.974 451.38C167.734 451.38 168.404 451.545 168.984 451.875C169.564 452.195 170.014 452.645 170.334 453.225C170.664 453.805 170.829 454.47 170.829 455.22C170.829 455.99 170.649 456.675 170.289 457.275C169.929 457.865 169.424 458.325 168.774 458.655C168.124 458.985 167.384 459.15 166.554 459.15C165.164 459.15 164.089 458.69 163.329 457.77C162.569 456.85 162.189 455.525 162.189 453.795C162.189 452.185 162.534 450.91 163.224 449.97C163.914 449.03 164.969 448.41 166.389 448.11L170.109 447.315L170.379 448.995L167.004 449.685C166.034 449.885 165.309 450.225 164.829 450.705C164.349 451.185 164.069 451.86 163.989 452.73C164.349 452.3 164.784 451.97 165.294 451.74C165.804 451.5 166.364 451.38 166.974 451.38ZM166.599 457.635C167.289 457.635 167.844 457.415 168.264 456.975C168.694 456.525 168.909 455.955 168.909 455.265C168.909 454.575 168.694 454.02 168.264 453.6C167.844 453.18 167.289 452.97 166.599 452.97C165.899 452.97 165.334 453.18 164.904 453.6C164.474 454.02 164.259 454.575 164.259 455.265C164.259 455.965 164.474 456.535 164.904 456.975C165.344 457.415 165.909 457.635 166.599 457.635ZM172.644 450.99H174.519V454.245H178.554V450.99H180.429V459H178.554V455.835H174.519V459H172.644V450.99ZM190.442 455.04C190.442 455.17 190.432 455.355 190.412 455.595H184.127C184.237 456.185 184.522 456.655 184.982 457.005C185.452 457.345 186.032 457.515 186.722 457.515C187.602 457.515 188.327 457.225 188.897 456.645L189.902 457.8C189.542 458.23 189.087 458.555 188.537 458.775C187.987 458.995 187.367 459.105 186.677 459.105C185.797 459.105 185.022 458.93 184.352 458.58C183.682 458.23 183.162 457.745 182.792 457.125C182.432 456.495 182.252 455.785 182.252 454.995C182.252 454.215 182.427 453.515 182.777 452.895C183.137 452.265 183.632 451.775 184.262 451.425C184.892 451.075 185.602 450.9 186.392 450.9C187.172 450.9 187.867 451.075 188.477 451.425C189.097 451.765 189.577 452.25 189.917 452.88C190.267 453.5 190.442 454.22 190.442 455.04ZM186.392 452.4C185.792 452.4 185.282 452.58 184.862 452.94C184.452 453.29 184.202 453.76 184.112 454.35H188.657C188.577 453.77 188.332 453.3 187.922 452.94C187.512 452.58 187.002 452.4 186.392 452.4ZM199.993 455.04C199.993 455.17 199.983 455.355 199.963 455.595H193.678C193.788 456.185 194.073 456.655 194.533 457.005C195.003 457.345 195.583 457.515 196.273 457.515C197.153 457.515 197.878 457.225 198.448 456.645L199.453 457.8C199.093 458.23 198.638 458.555 198.088 458.775C197.538 458.995 196.918 459.105 196.228 459.105C195.348 459.105 194.573 458.93 193.903 458.58C193.233 458.23 192.713 457.745 192.343 457.125C191.983 456.495 191.803 455.785 191.803 454.995C191.803 454.215 191.978 453.515 192.328 452.895C192.688 452.265 193.183 451.775 193.813 451.425C194.443 451.075 195.153 450.9 195.943 450.9C196.723 450.9 197.418 451.075 198.028 451.425C198.648 451.765 199.128 452.25 199.468 452.88C199.818 453.5 199.993 454.22 199.993 455.04ZM195.943 452.4C195.343 452.4 194.833 452.58 194.413 452.94C194.003 453.29 193.753 453.76 193.663 454.35H198.208C198.128 453.77 197.883 453.3 197.473 452.94C197.063 452.58 196.553 452.4 195.943 452.4Z" fill="#689F38"/>
<path d="M109.216 460.5H200.788V461.25H109.216V460.5Z" fill="#689F38"/>
<path d="M428.5 247.33C433.141 244.651 438.859 244.651 443.5 247.33L562.734 316.17C567.375 318.849 570.234 323.801 570.234 329.16V466.84C570.234 472.199 567.375 477.151 562.734 479.83L443.5 548.67C438.859 551.349 433.141 551.349 428.5 548.67L309.266 479.83C304.625 477.151 301.766 472.199 301.766 466.84V329.16C301.766 323.801 304.625 318.849 309.266 316.17L428.5 247.33Z" fill="white"/>
<path d="M442.25 249.495L561.484 318.335C565.351 320.568 567.734 324.694 567.734 329.16V466.84C567.734 471.306 565.351 475.432 561.484 477.665L442.25 546.505C438.382 548.738 433.618 548.738 429.75 546.505L310.516 477.665C306.649 475.432 304.266 471.306 304.266 466.84V329.16C304.266 324.694 306.649 320.568 310.516 318.335L429.75 249.495C433.618 247.262 438.382 247.262 442.25 249.495Z" stroke="#689F38" stroke-width="5"/>
<path d="M340.978 354V368H337.058V357.14H331.738V368H327.838V354H340.978ZM350.571 356.98C351.557 356.98 352.451 357.213 353.251 357.68C354.064 358.133 354.704 358.787 355.171 359.64C355.651 360.48 355.891 361.46 355.891 362.58C355.891 363.7 355.651 364.687 355.171 365.54C354.704 366.38 354.064 367.033 353.251 367.5C352.451 367.953 351.557 368.18 350.571 368.18C349.304 368.18 348.297 367.8 347.551 367.04V371.88H343.751V357.16H347.371V358.24C348.077 357.4 349.144 356.98 350.571 356.98ZM349.771 365.16C350.437 365.16 350.984 364.933 351.411 364.48C351.837 364.013 352.051 363.38 352.051 362.58C352.051 361.78 351.837 361.153 351.411 360.7C350.984 360.233 350.437 360 349.771 360C349.104 360 348.557 360.233 348.131 360.7C347.704 361.153 347.491 361.78 347.491 362.58C347.491 363.38 347.704 364.013 348.131 364.48C348.557 364.933 349.104 365.16 349.771 365.16ZM368.696 362.6C368.696 362.627 368.676 362.94 368.636 363.54H360.756C360.916 364.1 361.222 364.533 361.676 364.84C362.142 365.133 362.722 365.28 363.416 365.28C363.936 365.28 364.382 365.207 364.756 365.06C365.142 364.913 365.529 364.673 365.916 364.34L367.916 366.42C366.862 367.593 365.322 368.18 363.296 368.18C362.029 368.18 360.916 367.94 359.956 367.46C358.996 366.98 358.249 366.313 357.716 365.46C357.196 364.607 356.936 363.64 356.936 362.56C356.936 361.493 357.189 360.54 357.696 359.7C358.216 358.847 358.929 358.18 359.836 357.7C360.742 357.22 361.762 356.98 362.896 356.98C363.976 356.98 364.956 357.207 365.836 357.66C366.716 358.1 367.409 358.747 367.916 359.6C368.436 360.44 368.696 361.44 368.696 362.6ZM362.916 359.68C362.329 359.68 361.836 359.847 361.436 360.18C361.049 360.513 360.802 360.967 360.696 361.54H365.136C365.029 360.967 364.776 360.513 364.376 360.18C363.989 359.847 363.502 359.68 362.916 359.68ZM383.485 364.96V370.24H379.965V368H373.145V370.24H369.605V364.96H370.005C370.658 364.947 371.111 364.593 371.365 363.9C371.618 363.193 371.771 362.207 371.825 360.94L371.965 357.16H381.985V364.96H383.485ZM375.245 361.22C375.205 362.193 375.131 362.973 375.025 363.56C374.918 364.147 374.718 364.613 374.425 364.96H378.185V360.18H375.285L375.245 361.22ZM396.158 357.16V368H392.358V360.18H389.618L389.538 361.84C389.485 363.253 389.345 364.42 389.118 365.34C388.891 366.26 388.518 366.98 387.998 367.5C387.478 368.007 386.765 368.26 385.858 368.26C385.391 368.26 384.778 368.173 384.018 368L384.178 364.9C384.418 364.927 384.578 364.94 384.658 364.94C385.071 364.94 385.385 364.807 385.598 364.54C385.811 364.273 385.958 363.92 386.038 363.48C386.118 363.027 386.171 362.427 386.198 361.68L386.358 357.16H396.158ZM403.132 356.98C404.932 356.98 406.305 357.393 407.252 358.22C408.198 359.033 408.672 360.287 408.672 361.98V368H405.132V366.6C404.585 367.653 403.518 368.18 401.932 368.18C401.092 368.18 400.365 368.033 399.752 367.74C399.138 367.447 398.672 367.053 398.352 366.56C398.045 366.053 397.892 365.48 397.892 364.84C397.892 363.813 398.285 363.02 399.072 362.46C399.858 361.887 401.072 361.6 402.712 361.6H404.872C404.805 360.453 404.038 359.88 402.572 359.88C402.052 359.88 401.525 359.967 400.992 360.14C400.458 360.3 400.005 360.527 399.632 360.82L398.352 358.24C398.952 357.84 399.678 357.533 400.532 357.32C401.398 357.093 402.265 356.98 403.132 356.98ZM402.992 365.78C403.432 365.78 403.818 365.673 404.152 365.46C404.485 365.247 404.725 364.933 404.872 364.52V363.58H403.232C402.125 363.58 401.572 363.947 401.572 364.68C401.572 365.013 401.698 365.28 401.952 365.48C402.205 365.68 402.552 365.78 402.992 365.78ZM420.038 360.18H414.738V368H410.958V357.16H420.038V360.18ZM425.944 356.98C427.744 356.98 429.117 357.393 430.064 358.22C431.011 359.033 431.484 360.287 431.484 361.98V368H427.944V366.6C427.397 367.653 426.331 368.18 424.744 368.18C423.904 368.18 423.177 368.033 422.564 367.74C421.951 367.447 421.484 367.053 421.164 366.56C420.857 366.053 420.704 365.48 420.704 364.84C420.704 363.813 421.097 363.02 421.884 362.46C422.671 361.887 423.884 361.6 425.524 361.6H427.684C427.617 360.453 426.851 359.88 425.384 359.88C424.864 359.88 424.337 359.967 423.804 360.14C423.271 360.3 422.817 360.527 422.444 360.82L421.164 358.24C421.764 357.84 422.491 357.533 423.344 357.32C424.211 357.093 425.077 356.98 425.944 356.98ZM425.804 365.78C426.244 365.78 426.631 365.673 426.964 365.46C427.297 365.247 427.537 364.933 427.684 364.52V363.58H426.044C424.937 363.58 424.384 363.947 424.384 364.68C424.384 365.013 424.511 365.28 424.764 365.48C425.017 365.68 425.364 365.78 425.804 365.78ZM444.75 362.6C444.75 362.627 444.73 362.94 444.69 363.54H436.81C436.97 364.1 437.277 364.533 437.73 364.84C438.197 365.133 438.777 365.28 439.47 365.28C439.99 365.28 440.437 365.207 440.81 365.06C441.197 364.913 441.584 364.673 441.97 364.34L443.97 366.42C442.917 367.593 441.377 368.18 439.35 368.18C438.084 368.18 436.97 367.94 436.01 367.46C435.05 366.98 434.304 366.313 433.77 365.46C433.25 364.607 432.99 363.64 432.99 362.56C432.99 361.493 433.244 360.54 433.75 359.7C434.27 358.847 434.984 358.18 435.89 357.7C436.797 357.22 437.817 356.98 438.95 356.98C440.03 356.98 441.01 357.207 441.89 357.66C442.77 358.1 443.464 358.747 443.97 359.6C444.49 360.44 444.75 361.44 444.75 362.6ZM438.97 359.68C438.384 359.68 437.89 359.847 437.49 360.18C437.104 360.513 436.857 360.967 436.75 361.54H441.19C441.084 360.967 440.83 360.513 440.43 360.18C440.044 359.847 439.557 359.68 438.97 359.68ZM457.279 368V362.3L454.499 367.04H452.879L450.179 362.22V368H446.759V357.16H450.759L453.779 362.82L457.099 357.16H460.679L460.699 368H457.279ZM480.643 357.16L475.963 368.44C475.416 369.773 474.749 370.707 473.963 371.24C473.176 371.787 472.216 372.06 471.083 372.06C470.509 372.06 469.929 371.967 469.343 371.78C468.769 371.607 468.303 371.373 467.943 371.08L469.263 368.42C469.476 368.62 469.729 368.773 470.023 368.88C470.329 369 470.636 369.06 470.943 369.06C471.303 369.06 471.596 368.987 471.823 368.84C472.063 368.693 472.263 368.46 472.423 368.14L467.783 357.16H471.683L474.343 363.78L477.023 357.16H480.643ZM487.023 368.18C485.823 368.18 484.749 367.94 483.803 367.46C482.856 366.98 482.116 366.313 481.583 365.46C481.063 364.607 480.803 363.64 480.803 362.56C480.803 361.48 481.063 360.52 481.583 359.68C482.116 358.827 482.856 358.167 483.803 357.7C484.749 357.22 485.823 356.98 487.023 356.98C488.249 356.98 489.309 357.247 490.203 357.78C491.096 358.3 491.729 359.027 492.103 359.96L489.163 361.46C488.669 360.487 487.949 360 487.003 360C486.323 360 485.756 360.227 485.303 360.68C484.863 361.133 484.643 361.76 484.643 362.56C484.643 363.373 484.863 364.013 485.303 364.48C485.756 364.933 486.323 365.16 487.003 365.16C487.949 365.16 488.669 364.673 489.163 363.7L492.103 365.2C491.729 366.133 491.096 366.867 490.203 367.4C489.309 367.92 488.249 368.18 487.023 368.18ZM504.654 357.16V368H500.854V360.18H498.114L498.034 361.84C497.981 363.253 497.841 364.42 497.614 365.34C497.387 366.26 497.014 366.98 496.494 367.5C495.974 368.007 495.261 368.26 494.354 368.26C493.887 368.26 493.274 368.173 492.514 368L492.674 364.9C492.914 364.927 493.074 364.94 493.154 364.94C493.567 364.94 493.881 364.807 494.094 364.54C494.307 364.273 494.454 363.92 494.534 363.48C494.614 363.027 494.667 362.427 494.694 361.68L494.854 357.16H504.654ZM518.768 357.16L514.088 368.44C513.541 369.773 512.874 370.707 512.088 371.24C511.301 371.787 510.341 372.06 509.208 372.06C508.634 372.06 508.054 371.967 507.468 371.78C506.894 371.607 506.428 371.373 506.068 371.08L507.388 368.42C507.601 368.62 507.854 368.773 508.148 368.88C508.454 369 508.761 369.06 509.068 369.06C509.428 369.06 509.721 368.987 509.948 368.84C510.188 368.693 510.388 368.46 510.548 368.14L505.908 357.16H509.808L512.468 363.78L515.148 357.16H518.768ZM529.081 360.18H523.781V368H520.001V357.16H529.081V360.18ZM530.567 357.16H534.347V362.84L538.887 357.16H542.387V368H538.587V362.3L534.087 368H530.567V357.16ZM359.103 394.18C357.903 394.18 356.829 393.94 355.883 393.46C354.936 392.98 354.196 392.313 353.663 391.46C353.143 390.607 352.883 389.64 352.883 388.56C352.883 387.48 353.143 386.52 353.663 385.68C354.196 384.827 354.936 384.167 355.883 383.7C356.829 383.22 357.903 382.98 359.103 382.98C360.329 382.98 361.389 383.247 362.283 383.78C363.176 384.3 363.809 385.027 364.183 385.96L361.243 387.46C360.749 386.487 360.029 386 359.083 386C358.403 386 357.836 386.227 357.383 386.68C356.943 387.133 356.723 387.76 356.723 388.56C356.723 389.373 356.943 390.013 357.383 390.48C357.836 390.933 358.403 391.16 359.083 391.16C360.029 391.16 360.749 390.673 361.243 389.7L364.183 391.2C363.809 392.133 363.176 392.867 362.283 393.4C361.389 393.92 360.329 394.18 359.103 394.18ZM375.491 386.18H372.011V394H368.231V386.18H364.731V383.16H375.491V386.18ZM383.784 382.98C384.77 382.98 385.664 383.213 386.464 383.68C387.277 384.133 387.917 384.787 388.384 385.64C388.864 386.48 389.104 387.46 389.104 388.58C389.104 389.7 388.864 390.687 388.384 391.54C387.917 392.38 387.277 393.033 386.464 393.5C385.664 393.953 384.77 394.18 383.784 394.18C382.517 394.18 381.51 393.8 380.764 393.04V397.88H376.964V383.16H380.584V384.24C381.29 383.4 382.357 382.98 383.784 382.98ZM382.984 391.16C383.65 391.16 384.197 390.933 384.624 390.48C385.05 390.013 385.264 389.38 385.264 388.58C385.264 387.78 385.05 387.153 384.624 386.7C384.197 386.233 383.65 386 382.984 386C382.317 386 381.77 386.233 381.344 386.7C380.917 387.153 380.704 387.78 380.704 388.58C380.704 389.38 380.917 390.013 381.344 390.48C381.77 390.933 382.317 391.16 382.984 391.16ZM396.268 394.18C395.108 394.18 394.062 393.94 393.128 393.46C392.195 392.98 391.462 392.313 390.928 391.46C390.408 390.607 390.148 389.64 390.148 388.56C390.148 387.493 390.408 386.533 390.928 385.68C391.462 384.827 392.188 384.167 393.108 383.7C394.042 383.22 395.095 382.98 396.268 382.98C397.442 382.98 398.495 383.22 399.428 383.7C400.362 384.167 401.088 384.827 401.608 385.68C402.128 386.52 402.388 387.48 402.388 388.56C402.388 389.64 402.128 390.607 401.608 391.46C401.088 392.313 400.362 392.98 399.428 393.46C398.495 393.94 397.442 394.18 396.268 394.18ZM396.268 391.16C396.935 391.16 397.482 390.933 397.908 390.48C398.335 390.013 398.548 389.373 398.548 388.56C398.548 387.76 398.335 387.133 397.908 386.68C397.482 386.227 396.935 386 396.268 386C395.602 386 395.055 386.227 394.628 386.68C394.202 387.133 393.988 387.76 393.988 388.56C393.988 389.373 394.202 390.013 394.628 390.48C395.055 390.933 395.602 391.16 396.268 391.16ZM404.171 383.16H407.951V388.84L412.491 383.16H415.991V394H412.191V388.3L407.691 394H404.171V383.16ZM428.226 386.18H424.746V394H420.966V386.18H417.466V383.16H428.226V386.18ZM440.248 388.6C440.248 388.627 440.228 388.94 440.188 389.54H432.308C432.468 390.1 432.775 390.533 433.228 390.84C433.695 391.133 434.275 391.28 434.968 391.28C435.488 391.28 435.935 391.207 436.308 391.06C436.695 390.913 437.082 390.673 437.468 390.34L439.468 392.42C438.415 393.593 436.875 394.18 434.848 394.18C433.582 394.18 432.468 393.94 431.508 393.46C430.548 392.98 429.802 392.313 429.268 391.46C428.748 390.607 428.488 389.64 428.488 388.56C428.488 387.493 428.742 386.54 429.248 385.7C429.768 384.847 430.482 384.18 431.388 383.7C432.295 383.22 433.315 382.98 434.448 382.98C435.528 382.98 436.508 383.207 437.388 383.66C438.268 384.1 438.962 384.747 439.468 385.6C439.988 386.44 440.248 387.44 440.248 388.6ZM434.468 385.68C433.882 385.68 433.388 385.847 432.988 386.18C432.602 386.513 432.355 386.967 432.248 387.54H436.688C436.582 386.967 436.328 386.513 435.928 386.18C435.542 385.847 435.055 385.68 434.468 385.68ZM453.258 383.16V394H449.458V386.18H446.718L446.638 387.84C446.584 389.253 446.444 390.42 446.217 391.34C445.991 392.26 445.618 392.98 445.098 393.5C444.578 394.007 443.864 394.26 442.958 394.26C442.491 394.26 441.877 394.173 441.118 394L441.278 390.9C441.518 390.927 441.678 390.94 441.758 390.94C442.171 390.94 442.484 390.807 442.698 390.54C442.911 390.273 443.058 389.92 443.138 389.48C443.218 389.027 443.271 388.427 443.298 387.68L443.458 383.16H453.258ZM462.171 386.52C463.611 386.533 464.711 386.853 465.471 387.48C466.231 388.107 466.611 389 466.611 390.16C466.611 391.36 466.171 392.307 465.291 393C464.425 393.68 463.225 394.013 461.691 394H455.811V383.16H459.591V386.52H462.171ZM461.311 391.4C462.271 391.4 462.751 390.967 462.751 390.1C462.751 389.673 462.631 389.36 462.391 389.16C462.151 388.96 461.791 388.853 461.311 388.84H459.591V391.38L461.311 391.4ZM468.233 383.16H472.013V387.18H475.913V383.16H479.713V394H475.913V390.2H472.013V394H468.233V383.16ZM487.616 394.18C486.456 394.18 485.409 393.94 484.476 393.46C483.543 392.98 482.809 392.313 482.276 391.46C481.756 390.607 481.496 389.64 481.496 388.56C481.496 387.493 481.756 386.533 482.276 385.68C482.809 384.827 483.536 384.167 484.456 383.7C485.389 383.22 486.443 382.98 487.616 382.98C488.789 382.98 489.843 383.22 490.776 383.7C491.709 384.167 492.436 384.827 492.956 385.68C493.476 386.52 493.736 387.48 493.736 388.56C493.736 389.64 493.476 390.607 492.956 391.46C492.436 392.313 491.709 392.98 490.776 393.46C489.843 393.94 488.789 394.18 487.616 394.18ZM487.616 391.16C488.283 391.16 488.829 390.933 489.256 390.48C489.683 390.013 489.896 389.373 489.896 388.56C489.896 387.76 489.683 387.133 489.256 386.68C488.829 386.227 488.283 386 487.616 386C486.949 386 486.403 386.227 485.976 386.68C485.549 387.133 485.336 387.76 485.336 388.56C485.336 389.373 485.549 390.013 485.976 390.48C486.403 390.933 486.949 391.16 487.616 391.16ZM504.598 386.18H499.298V394H495.518V383.16H504.598V386.18ZM510.995 394.18C509.835 394.18 508.788 393.94 507.855 393.46C506.922 392.98 506.188 392.313 505.655 391.46C505.135 390.607 504.875 389.64 504.875 388.56C504.875 387.493 505.135 386.533 505.655 385.68C506.188 384.827 506.915 384.167 507.835 383.7C508.768 383.22 509.822 382.98 510.995 382.98C512.168 382.98 513.222 383.22 514.155 383.7C515.088 384.167 515.815 384.827 516.335 385.68C516.855 386.52 517.115 387.48 517.115 388.56C517.115 389.64 516.855 390.607 516.335 391.46C515.815 392.313 515.088 392.98 514.155 393.46C513.222 393.94 512.168 394.18 510.995 394.18ZM510.995 391.16C511.662 391.16 512.208 390.933 512.635 390.48C513.062 390.013 513.275 389.373 513.275 388.56C513.275 387.76 513.062 387.133 512.635 386.68C512.208 386.227 511.662 386 510.995 386C510.328 386 509.782 386.227 509.355 386.68C508.928 387.133 508.715 387.76 508.715 388.56C508.715 389.373 508.928 390.013 509.355 390.48C509.782 390.933 510.328 391.16 510.995 391.16ZM371.038 416.14H369.758V420H365.958V409.16H369.758V413.16H371.118L373.778 409.16H377.798L374.158 414.36L378.038 420H373.558L371.038 416.14ZM384.325 420.18C383.165 420.18 382.118 419.94 381.185 419.46C380.252 418.98 379.518 418.313 378.985 417.46C378.465 416.607 378.205 415.64 378.205 414.56C378.205 413.493 378.465 412.533 378.985 411.68C379.518 410.827 380.245 410.167 381.165 409.7C382.098 409.22 383.152 408.98 384.325 408.98C385.498 408.98 386.552 409.22 387.485 409.7C388.418 410.167 389.145 410.827 389.665 411.68C390.185 412.52 390.445 413.48 390.445 414.56C390.445 415.64 390.185 416.607 389.665 417.46C389.145 418.313 388.418 418.98 387.485 419.46C386.552 419.94 385.498 420.18 384.325 420.18ZM384.325 417.16C384.992 417.16 385.538 416.933 385.965 416.48C386.392 416.013 386.605 415.373 386.605 414.56C386.605 413.76 386.392 413.133 385.965 412.68C385.538 412.227 384.992 412 384.325 412C383.658 412 383.112 412.227 382.685 412.68C382.258 413.133 382.045 413.76 382.045 414.56C382.045 415.373 382.258 416.013 382.685 416.48C383.112 416.933 383.658 417.16 384.325 417.16ZM392.227 409.16H396.007V413.18H399.907V409.16H403.707V420H399.907V416.2H396.007V420H392.227V409.16ZM411.71 420.18C410.51 420.18 409.437 419.94 408.49 419.46C407.544 418.98 406.804 418.313 406.27 417.46C405.75 416.607 405.49 415.64 405.49 414.56C405.49 413.48 405.75 412.52 406.27 411.68C406.804 410.827 407.544 410.167 408.49 409.7C409.437 409.22 410.51 408.98 411.71 408.98C412.937 408.98 413.997 409.247 414.89 409.78C415.784 410.3 416.417 411.027 416.79 411.96L413.85 413.46C413.357 412.487 412.637 412 411.69 412C411.01 412 410.444 412.227 409.99 412.68C409.55 413.133 409.33 413.76 409.33 414.56C409.33 415.373 409.55 416.013 409.99 416.48C410.444 416.933 411.01 417.16 411.69 417.16C412.637 417.16 413.357 416.673 413.85 415.7L416.79 417.2C416.417 418.133 415.784 418.867 414.89 419.4C413.997 419.92 412.937 420.18 411.71 420.18ZM422.8 408.98C424.6 408.98 425.973 409.393 426.92 410.22C427.866 411.033 428.34 412.287 428.34 413.98V420H424.8V418.6C424.253 419.653 423.186 420.18 421.6 420.18C420.76 420.18 420.033 420.033 419.42 419.74C418.806 419.447 418.34 419.053 418.02 418.56C417.713 418.053 417.56 417.48 417.56 416.84C417.56 415.813 417.953 415.02 418.74 414.46C419.526 413.887 420.74 413.6 422.38 413.6H424.54C424.473 412.453 423.706 411.88 422.24 411.88C421.72 411.88 421.193 411.967 420.66 412.14C420.126 412.3 419.673 412.527 419.3 412.82L418.02 410.24C418.62 409.84 419.346 409.533 420.2 409.32C421.066 409.093 421.933 408.98 422.8 408.98ZM422.66 417.78C423.1 417.78 423.486 417.673 423.82 417.46C424.153 417.247 424.393 416.933 424.54 416.52V415.58H422.9C421.793 415.58 421.24 415.947 421.24 416.68C421.24 417.013 421.366 417.28 421.62 417.48C421.873 417.68 422.22 417.78 422.66 417.78ZM441.666 409.16V420H437.866V412.18H435.126L435.046 413.84C434.992 415.253 434.852 416.42 434.626 417.34C434.399 418.26 434.026 418.98 433.506 419.5C432.986 420.007 432.272 420.26 431.366 420.26C430.899 420.26 430.286 420.173 429.526 420L429.686 416.9C429.926 416.927 430.086 416.94 430.166 416.94C430.579 416.94 430.892 416.807 431.106 416.54C431.319 416.273 431.466 415.92 431.546 415.48C431.626 415.027 431.679 414.427 431.706 413.68L431.866 409.16H441.666ZM453.899 412.18H450.419V420H446.639V412.18H443.139V409.16H453.899V412.18ZM455.372 409.16H459.152V414.84L463.692 409.16H467.192V420H463.392V414.3L458.892 420H455.372V409.16ZM469.747 409.16H473.527V413.18H477.427V409.16H481.227V420H477.427V416.2H473.527V420H469.747V409.16ZM492.87 412.18H487.57V420H483.79V409.16H492.87V412.18ZM498.776 408.98C500.576 408.98 501.95 409.393 502.896 410.22C503.843 411.033 504.316 412.287 504.316 413.98V420H500.776V418.6C500.23 419.653 499.163 420.18 497.576 420.18C496.736 420.18 496.01 420.033 495.396 419.74C494.783 419.447 494.316 419.053 493.996 418.56C493.69 418.053 493.536 417.48 493.536 416.84C493.536 415.813 493.93 415.02 494.716 414.46C495.503 413.887 496.716 413.6 498.356 413.6H500.516C500.45 412.453 499.683 411.88 498.216 411.88C497.696 411.88 497.17 411.967 496.636 412.14C496.103 412.3 495.65 412.527 495.276 412.82L493.996 410.24C494.596 409.84 495.323 409.533 496.176 409.32C497.043 409.093 497.91 408.98 498.776 408.98ZM498.636 417.78C499.076 417.78 499.463 417.673 499.796 417.46C500.13 417.247 500.37 416.933 500.516 416.52V415.58H498.876C497.77 415.58 497.216 415.947 497.216 416.68C497.216 417.013 497.343 417.28 497.596 417.48C497.85 417.68 498.196 417.78 498.636 417.78Z" fill="#689F38"/>
<path d="M400.986 448.5V459H399.066V450.15H393.621V459H391.701V448.5H400.986ZM407.307 459.105C406.497 459.105 405.767 458.93 405.117 458.58C404.467 458.23 403.957 457.745 403.587 457.125C403.227 456.495 403.047 455.785 403.047 454.995C403.047 454.205 403.227 453.5 403.587 452.88C403.957 452.26 404.467 451.775 405.117 451.425C405.767 451.075 406.497 450.9 407.307 450.9C408.127 450.9 408.862 451.075 409.512 451.425C410.162 451.775 410.667 452.26 411.027 452.88C411.397 453.5 411.582 454.205 411.582 454.995C411.582 455.785 411.397 456.495 411.027 457.125C410.667 457.745 410.162 458.23 409.512 458.58C408.862 458.93 408.127 459.105 407.307 459.105ZM407.307 457.5C407.997 457.5 408.567 457.27 409.017 456.81C409.467 456.35 409.692 455.745 409.692 454.995C409.692 454.245 409.467 453.64 409.017 453.18C408.567 452.72 407.997 452.49 407.307 452.49C406.617 452.49 406.047 452.72 405.597 453.18C405.157 453.64 404.937 454.245 404.937 454.995C404.937 455.745 405.157 456.35 405.597 456.81C406.047 457.27 406.617 457.5 407.307 457.5ZM421.896 457.41V460.785H420.141V459H413.961V460.785H412.221V457.41H412.596C413.106 457.39 413.451 457.065 413.631 456.435C413.821 455.795 413.946 454.895 414.006 453.735L414.111 450.99H420.711V457.41H421.896ZM415.716 453.87C415.676 454.79 415.601 455.54 415.491 456.12C415.381 456.7 415.181 457.13 414.891 457.41H418.836V452.58H415.761L415.716 453.87ZM428.011 450.9C428.791 450.9 429.486 451.07 430.096 451.41C430.716 451.75 431.201 452.23 431.551 452.85C431.901 453.47 432.076 454.185 432.076 454.995C432.076 455.805 431.901 456.525 431.551 457.155C431.201 457.775 430.716 458.255 430.096 458.595C429.486 458.935 428.791 459.105 428.011 459.105C426.931 459.105 426.076 458.745 425.446 458.025V461.91H423.571V450.99H425.356V452.04C425.666 451.66 426.046 451.375 426.496 451.185C426.956 450.995 427.461 450.9 428.011 450.9ZM427.801 457.5C428.491 457.5 429.056 457.27 429.496 456.81C429.946 456.35 430.171 455.745 430.171 454.995C430.171 454.245 429.946 453.64 429.496 453.18C429.056 452.72 428.491 452.49 427.801 452.49C427.351 452.49 426.946 452.595 426.586 452.805C426.226 453.005 425.941 453.295 425.731 453.675C425.521 454.055 425.416 454.495 425.416 454.995C425.416 455.495 425.521 455.935 425.731 456.315C425.941 456.695 426.226 456.99 426.586 457.2C426.946 457.4 427.351 457.5 427.801 457.5ZM437.512 459.105C436.702 459.105 435.972 458.93 435.322 458.58C434.672 458.23 434.162 457.745 433.792 457.125C433.432 456.495 433.252 455.785 433.252 454.995C433.252 454.205 433.432 453.5 433.792 452.88C434.162 452.26 434.672 451.775 435.322 451.425C435.972 451.075 436.702 450.9 437.512 450.9C438.332 450.9 439.067 451.075 439.717 451.425C440.367 451.775 440.872 452.26 441.232 452.88C441.602 453.5 441.787 454.205 441.787 454.995C441.787 455.785 441.602 456.495 441.232 457.125C440.872 457.745 440.367 458.23 439.717 458.58C439.067 458.93 438.332 459.105 437.512 459.105ZM437.512 457.5C438.202 457.5 438.772 457.27 439.222 456.81C439.672 456.35 439.897 455.745 439.897 454.995C439.897 454.245 439.672 453.64 439.222 453.18C438.772 452.72 438.202 452.49 437.512 452.49C436.822 452.49 436.252 452.72 435.802 453.18C435.362 453.64 435.142 454.245 435.142 454.995C435.142 455.745 435.362 456.35 435.802 456.81C436.252 457.27 436.822 457.5 437.512 457.5ZM447.974 451.38C448.734 451.38 449.404 451.545 449.984 451.875C450.564 452.195 451.014 452.645 451.334 453.225C451.664 453.805 451.829 454.47 451.829 455.22C451.829 455.99 451.649 456.675 451.289 457.275C450.929 457.865 450.424 458.325 449.774 458.655C449.124 458.985 448.384 459.15 447.554 459.15C446.164 459.15 445.089 458.69 444.329 457.77C443.569 456.85 443.189 455.525 443.189 453.795C443.189 452.185 443.534 450.91 444.224 449.97C444.914 449.03 445.969 448.41 447.389 448.11L451.109 447.315L451.379 448.995L448.004 449.685C447.034 449.885 446.309 450.225 445.829 450.705C445.349 451.185 445.069 451.86 444.989 452.73C445.349 452.3 445.784 451.97 446.294 451.74C446.804 451.5 447.364 451.38 447.974 451.38ZM447.599 457.635C448.289 457.635 448.844 457.415 449.264 456.975C449.694 456.525 449.909 455.955 449.909 455.265C449.909 454.575 449.694 454.02 449.264 453.6C448.844 453.18 448.289 452.97 447.599 452.97C446.899 452.97 446.334 453.18 445.904 453.6C445.474 454.02 445.259 454.575 445.259 455.265C445.259 455.965 445.474 456.535 445.904 456.975C446.344 457.415 446.909 457.635 447.599 457.635ZM453.644 450.99H455.519V454.245H459.554V450.99H461.429V459H459.554V455.835H455.519V459H453.644V450.99ZM471.442 455.04C471.442 455.17 471.432 455.355 471.412 455.595H465.127C465.237 456.185 465.522 456.655 465.982 457.005C466.452 457.345 467.032 457.515 467.722 457.515C468.602 457.515 469.327 457.225 469.897 456.645L470.902 457.8C470.542 458.23 470.087 458.555 469.537 458.775C468.987 458.995 468.367 459.105 467.677 459.105C466.797 459.105 466.022 458.93 465.352 458.58C464.682 458.23 464.162 457.745 463.792 457.125C463.432 456.495 463.252 455.785 463.252 454.995C463.252 454.215 463.427 453.515 463.777 452.895C464.137 452.265 464.632 451.775 465.262 451.425C465.892 451.075 466.602 450.9 467.392 450.9C468.172 450.9 468.867 451.075 469.477 451.425C470.097 451.765 470.577 452.25 470.917 452.88C471.267 453.5 471.442 454.22 471.442 455.04ZM467.392 452.4C466.792 452.4 466.282 452.58 465.862 452.94C465.452 453.29 465.202 453.76 465.112 454.35H469.657C469.577 453.77 469.332 453.3 468.922 452.94C468.512 452.58 468.002 452.4 467.392 452.4ZM480.993 455.04C480.993 455.17 480.983 455.355 480.963 455.595H474.678C474.788 456.185 475.073 456.655 475.533 457.005C476.003 457.345 476.583 457.515 477.273 457.515C478.153 457.515 478.878 457.225 479.448 456.645L480.453 457.8C480.093 458.23 479.638 458.555 479.088 458.775C478.538 458.995 477.918 459.105 477.228 459.105C476.348 459.105 475.573 458.93 474.903 458.58C474.233 458.23 473.713 457.745 473.343 457.125C472.983 456.495 472.803 455.785 472.803 454.995C472.803 454.215 472.978 453.515 473.328 452.895C473.688 452.265 474.183 451.775 474.813 451.425C475.443 451.075 476.153 450.9 476.943 450.9C477.723 450.9 478.418 451.075 479.028 451.425C479.648 451.765 480.128 452.25 480.468 452.88C480.818 453.5 480.993 454.22 480.993 455.04ZM476.943 452.4C476.343 452.4 475.833 452.58 475.413 452.94C475.003 453.29 474.753 453.76 474.663 454.35H479.208C479.128 453.77 478.883 453.3 478.473 452.94C478.063 452.58 477.553 452.4 476.943 452.4Z" fill="#689F38"/>
<path d="M390.216 460.5H481.788V461.25H390.216V460.5Z" fill="#689F38"/>
</svg>
